<?xml version="1.0" encoding="UTF-8"?>
<svg width="1440px" height="900px" viewBox="0 0 1440 900" version="1.1" xmlns="http://www.w3.org/2000/svg" xmlns:xlink="http://www.w3.org/1999/xlink">
    <!-- Generator: Sketch 64 (93537) - https://sketch.com -->
    <title>scrm首页</title>
    <desc>Created with Sketch.</desc>
    <defs>
        <rect id="path-1" x="0" y="0" width="281" height="168"></rect>
        <linearGradient x1="-2.22044605e-14%" y1="50%" x2="100%" y2="50%" id="linearGradient-2">
            <stop stop-color="#FFFFFF" stop-opacity="0" offset="0%"></stop>
            <stop stop-color="#DCE8FF" offset="100%"></stop>
        </linearGradient>
        <circle id="path-3" cx="52.9111974" cy="52.623067" r="52"></circle>
        <linearGradient x1="116.818105%" y1="66.8181046%" x2="-16.8181046%" y2="66.8181046%" id="linearGradient-5">
            <stop stop-color="#FFFFFF" stop-opacity="0" offset="0%"></stop>
            <stop stop-color="#EDF2FF" offset="100%"></stop>
        </linearGradient>
        <linearGradient x1="50%" y1="133.636209%" x2="50%" y2="2.77555756e-15%" id="linearGradient-6">
            <stop stop-color="#FFFFFF" stop-opacity="0" offset="0%"></stop>
            <stop stop-color="#DCE8FF" offset="100%"></stop>
        </linearGradient>
        <linearGradient x1="50%" y1="100%" x2="50%" y2="3.061617e-15%" id="linearGradient-7">
            <stop stop-color="#FFFFFF" stop-opacity="0" offset="0%"></stop>
            <stop stop-color="#E9F0FF" offset="100%"></stop>
        </linearGradient>
        <path d="M0.388968557,13.9598142 L0.388968557,115.149254 L35.7568936,115.149254 C41.4187406,77.5856241 44.9959005,57.0000494 46.4883733,53.3925296 C48.7270824,47.98125 53.2024577,46.2730239 55.1808336,51.3874763 C56.4997509,54.7971113 56.8518173,69.4341217 56.2370328,95.2985075 L93.0114231,95.2985075 C103.83969,70.5467348 107.59804,50.690407 104.286473,35.7295241 C100.974906,20.7686412 91.5858826,8.8587998 76.119403,4.90274488e-13 L0.388968557,13.9598142 Z" id="path-8"></path>
        <circle id="path-10" cx="6.68656716" cy="6.68656716" r="6.68656716"></circle>
        <circle id="path-12" cx="8.34068844" cy="8.34068844" r="8.34068844"></circle>
        <linearGradient x1="50%" y1="0%" x2="50%" y2="100%" id="linearGradient-14">
            <stop stop-color="#FFFFFF" offset="0%"></stop>
            <stop stop-color="#F3F3F3" offset="100%"></stop>
        </linearGradient>
    </defs>
    <g id="scrm首页" stroke="none" stroke-width="1" fill="none" fill-rule="evenodd">
        <rect fill="#FFFFFF" x="0" y="0" width="1440" height="900"></rect>
        <g id="编组-19" transform="translate(-667.000000, -800.000000)">
            <path d="M1032.06153,1794.01986 C1091.13763,1720.04696 1216.92349,1805.51389 1255.39219,1700.71329 C1293.86089,1595.91268 1363.53183,1526.28859 1509.19641,1534.9739 C1654.86098,1543.6592 1637.80492,1613.5175 1792.67655,1589.14751 C1947.54817,1564.77753 1932.23827,1499.93658 2107.55232,1490.19048 C2180.67265,1486.12556 2289.31188,1547.57705 2303.23827,1630.71392 C2322.14029,1743.55398 2242.37313,1902.2666 2164.04687,1956.21392 C2015.65074,2058.42196 1933.47233,2233.31527 1686.37476,2099.51182 C1439.27718,1965.70837 1227.13411,2122.67954 1110.34948,2063.81363 C993.564855,2004.94771 972.985428,1867.99276 1032.06153,1794.01986 Z" id="路径-8" fill="#CBDDFF" opacity="0.671061198"></path>
            <g id="编组-18" transform="translate(744.000000, 621.500000) rotate(-210.000000) translate(-744.000000, -621.500000) translate(78.000000, 289.000000)">
                <path d="M45.0615303,304.019857 C104.137633,230.046959 229.923489,315.513895 268.392191,210.713286 C306.860893,105.912677 376.531834,36.2885902 522.196407,44.9738954 C667.86098,53.6592005 650.804924,123.5175 805.676548,99.1475145 C960.548171,74.7775295 945.238274,9.93657701 1120.55232,0.190483256 C1193.67265,-3.87443699 1302.31188,57.5770481 1316.23827,140.713921 C1335.14029,253.553985 1255.37313,412.2666 1177.04687,466.213921 C1028.65074,568.421962 946.472331,743.315266 699.374757,609.511819 C452.277184,475.708371 240.134106,632.679542 123.34948,573.813626 C6.56485451,514.947709 -14.014572,377.992756 45.0615303,304.019857 Z" id="路径-8备份" fill="#CBDDFF" opacity="0.671061198"></path>
                <path d="M33.6255074,314.019857 C95.5833708,240.046959 227.505122,325.513895 267.850346,220.713286 C308.19557,115.912677 381.265095,46.2885902 534.035256,54.9738954 C686.805418,63.6592005 706.065936,159.713921 853.152105,140.713921 C1000.23827,121.713921 1049.22265,-8.78607924 1212.23827,54.9738954 C1375.2539,118.73387 1379.62499,390.367587 1176.24218,471.91648 C972.859367,553.465373 979.007567,753.315266 719.856453,619.511819 C460.705339,485.708371 238.213819,642.679542 115.732382,583.813626 C-6.74905502,524.947709 -28.332356,387.992756 33.6255074,314.019857 Z" id="路径-8备份-2" fill="#EDF2FF"></path>
            </g>
            <path d="M1020.62551,1804.01986 C1082.58337,1730.04696 1214.50512,1815.51389 1254.85035,1710.71329 C1295.19557,1605.91268 1368.26509,1536.28859 1521.03526,1544.9739 C1673.80542,1553.6592 1693.06594,1649.71392 1840.1521,1630.71392 C1987.23827,1611.71392 2036.22265,1481.21392 2199.23827,1544.9739 C2362.2539,1608.73387 2366.62499,1880.36759 2163.24218,1961.91648 C1959.85937,2043.46537 1966.00757,2243.31527 1706.85645,2109.51182 C1447.70534,1975.70837 1225.21382,2132.67954 1102.73238,2073.81363 C980.250945,2014.94771 958.667644,1877.99276 1020.62551,1804.01986 Z" id="路径-8" fill="#EDF2FF"></path>
            <g id="编组-7" transform="translate(1501.000000, 983.000000)">
                <g id="矩形">
                    <rect stroke="#FFFFFF" stroke-width="10" stroke-linejoin="square" fill="#DCE8FF" fill-rule="evenodd" x="5" y="5" width="271" height="158"></rect>
                    <rect stroke="#323232" stroke-width="1" x="-0.5" y="-0.5" width="282" height="169"></rect>
                </g>
                <rect id="矩形" fill="#FFFFFF" x="10" y="79" width="261" height="10"></rect>
                <rect id="矩形" fill="#FFFFFF" transform="translate(140.000000, 83.500000) rotate(-270.000000) translate(-140.000000, -83.500000) " x="65.5" y="78.5" width="149" height="10"></rect>
            </g>
            <circle id="椭圆形备份-7" fill="url(#linearGradient-2)" cx="1841.5" cy="1424.5" r="59.5"></circle>
            <g id="编组-14" transform="translate(1816.716334, 1400.062178) rotate(-30.000000) translate(-1816.716334, -1400.062178) translate(1764.216334, 1347.562178)">
                <mask id="mask-4" fill="white">
                    <use xlink:href="#path-3"></use>
                </mask>
                <use id="蒙版" fill-opacity="0" fill="#FFFFFF" xlink:href="#path-3"></use>
                <g mask="url(#mask-4)" stroke="#323232" stroke-linecap="round" stroke-linejoin="round">
                    <g transform="translate(-39.460937, -19.773702)">
                        <line x1="0.98828125" y1="17.7737021" x2="203.988281" y2="17.7737021" id="路径-11备份"></line>
                        <line x1="0.98828125" y1="25.7737021" x2="203.988281" y2="25.7737021" id="路径-11备份-2"></line>
                        <line x1="0.98828125" y1="33.7737021" x2="203.988281" y2="33.7737021" id="路径-11备份-3"></line>
                        <line x1="0.98828125" y1="41.7737021" x2="203.988281" y2="41.7737021" id="路径-11备份-4"></line>
                        <line x1="0.98828125" y1="49.7737021" x2="203.988281" y2="49.7737021" id="路径-11备份-5"></line>
                        <line x1="0.98828125" y1="57.7737021" x2="203.988281" y2="57.7737021" id="路径-11备份-6"></line>
                        <line x1="0.98828125" y1="65.7737021" x2="203.988281" y2="65.7737021" id="路径-11备份-7"></line>
                        <line x1="0.98828125" y1="73.7737021" x2="203.988281" y2="73.7737021" id="路径-11备份-8"></line>
                        <line x1="0.98828125" y1="81.7737021" x2="203.988281" y2="81.7737021" id="路径-11备份-9"></line>
                        <line x1="0.98828125" y1="89.7737021" x2="203.988281" y2="89.7737021" id="路径-11备份-10"></line>
                        <line x1="0.98828125" y1="97.7737021" x2="203.988281" y2="97.7737021" id="路径-11备份-11"></line>
                        <line x1="0.98828125" y1="105.773702" x2="203.988281" y2="105.773702" id="路径-11备份-12"></line>
                        <line x1="0.98828125" y1="113.773702" x2="203.988281" y2="113.773702" id="路径-11备份-13"></line>
                        <line x1="0.98828125" y1="121.773702" x2="203.988281" y2="121.773702" id="路径-11备份-14"></line>
                        <line x1="0.98828125" y1="9.5" x2="203.988281" y2="9.5" id="路径-11"></line>
                        <line x1="0.98828125" y1="0.773702054" x2="203.988281" y2="0.773702054" id="路径-11备份-15"></line>
                    </g>
                </g>
            </g>
            <circle id="椭圆形备份-6" fill="url(#linearGradient-5)" cx="906" cy="997" r="81"></circle>
            <line x1="1249" y1="1467" x2="1254" y2="1479" id="路径-5" stroke="#323232" stroke-linecap="round" stroke-linejoin="round"></line>
            <circle id="椭圆形备份-2" fill="#8FD59F" cx="1720" cy="1458" r="5"></circle>
            <line x1="1719" y1="1456" x2="1712" y2="1467" id="路径-5" stroke="#323232" stroke-linecap="round" stroke-linejoin="round"></line>
            <circle id="椭圆形" fill="#0188FF" cx="1129" cy="1415" r="6"></circle>
            <circle id="椭圆形" stroke="#323232" cx="1186" cy="1096" r="6"></circle>
            <circle id="椭圆形" fill="#323232" cx="1190" cy="1099" r="6"></circle>
            <circle id="椭圆形" stroke="#323232" cx="1255" cy="1458" r="3"></circle>
            <circle id="椭圆形备份" stroke="#323232" cx="1953" cy="1030" r="6"></circle>
            <circle id="椭圆形备份-8" fill="url(#linearGradient-6)" cx="983.5" cy="1046.5" r="49.5"></circle>
            <line x1="807" y1="1483.5" x2="1967" y2="1483.5" id="路径-9" stroke="#323232" fill="#FF2236"></line>
            <circle id="椭圆形" stroke="#323232" cx="1135" cy="1415" r="6"></circle>
            <circle id="椭圆形备份" fill="#0188FF" cx="1947" cy="1024" r="6"></circle>
        </g>
        <g id="编组-10" transform="translate(830.000000, 223.000000)">
            <polygon id="路径-3" fill="url(#linearGradient-7)" points="6 284.359276 70.4296536 284.359276 70.4296536 265.294845 141.003872 264.656716 141.003872 247.01524 209.003872 246.656716 209.003872 227.873046 276.581927 227.873046 276.581927 202.843941 345.000665 202.843941 345.000665 178 395.571036 178 395.571036 299.043248 6 299.043248"></polygon>
            <polyline id="路径-3" stroke="#323232" stroke-linecap="round" stroke-linejoin="round" points="-1.98951966e-13 291.359276 64.4296536 291.359276 64.4296536 272.294845 135.003872 271.656716 135.003872 254.01524 203.003872 253.656716 203.003872 234.873046 270.581927 234.873046 270.581927 209.843941 339.000665 209.843941 339.000665 185 389.571036 185"></polyline>
            <g id="编组-17" transform="translate(134.000000, 0.000000)">
                <g id="编组-6" transform="translate(81.457870, 106.100354) rotate(-128.000000) translate(-81.457870, -106.100354) translate(48.957870, 67.600354)">
                    <g id="编组-5" transform="translate(32.497082, 38.295841) rotate(-261.000000) translate(-32.497082, -38.295841) translate(-2.002918, 11.295841)">
                        <path d="M29.6536631,3.78150624 C36.5519164,3.76677068 42.156001,9.34696429 42.1707366,16.2452175 C42.1707745,16.262983 42.1707746,16.2807486 42.1707367,16.2985141 L42.0876057,55.3111585 L42.0876057,55.3111585 L17,55.3647489 L17.083131,16.3521044 C17.0979116,9.41571208 22.7172708,3.79632328 29.6536631,3.78150624 Z" id="矩形备份-2" fill="#FFE1E0" transform="translate(29.598733, 29.559730) rotate(-120.000000) translate(-29.598733, -29.559730) "></path>
                        <path d="M45.5059373,0.14155264 C48.2659364,0.135656924 50.5081371,2.36829881 50.5140328,5.12829786 C50.5140471,5.13498467 50.5140479,5.1416715 50.5140354,5.14835831 L50.496116,14.6899479 L50.496116,14.6899479 L45.4785948,14.700666 L45.5059373,0.14155264 Z" id="矩形" fill="#FFE1E0" transform="translate(48.001027, 7.415750) rotate(-300.000000) translate(-48.001027, -7.415750) "></path>
                        <path d="M56.0115748,-3.99464096 C57.3912255,-3.99758808 58.5120424,-2.88154935 58.5149895,-1.50189871 C58.5149971,-1.49834561 58.5149971,-1.4947925 58.5149895,-1.4912394 L58.4720909,18.640726 C58.4691347,20.0280044 57.3452629,21.1518822 55.9579844,21.1548456 C54.5783338,21.1577927 53.4575169,20.041754 53.4545697,18.6621033 C53.4545622,18.6585502 53.4545621,18.6549971 53.4545697,18.651444 L53.4974684,-1.48052132 C53.5004245,-2.8677998 54.6242964,-3.99167756 56.0115748,-3.99464096 Z" id="矩形备份-3" fill="#FFE1E0" transform="translate(55.984780, 8.580102) rotate(-300.000000) translate(-55.984780, -8.580102) "></path>
                        <path d="M55.9244614,3.24098732 C57.5388442,3.23804036 58.8499491,4.54436723 58.852896,6.15875004 C58.8529037,6.16295831 58.8529023,6.1671666 58.8528918,6.17137486 L58.8142279,21.6769453 C58.8101799,23.3003603 57.4945741,24.6150874 55.8711567,24.6180509 C54.2567739,24.6209979 52.9456691,23.314671 52.9427221,21.7002882 C52.9427144,21.6960799 52.9427158,21.6918716 52.9427263,21.6876634 L52.9813902,6.18209294 C52.9854383,4.55867789 54.301044,3.24395077 55.9244614,3.24098732 Z" id="矩形备份-4" fill="#FFE1E0" transform="translate(55.897809, 13.929519) rotate(-300.000000) translate(-55.897809, -13.929519) "></path>
                        <path d="M57.3477092,9.46249949 C58.9638015,9.45955253 60.2762921,10.7672652 60.279239,12.3833574 C60.2792467,12.3875708 60.2792453,12.3917842 60.2792348,12.3959976 L60.2468232,25.3803982 C60.2427666,27.0055337 58.9257637,28.321651 57.3006258,28.3246144 C55.6845336,28.3275614 54.372043,27.0198487 54.3690961,25.4037565 C54.3690884,25.3995431 54.3690898,25.3953297 54.3691003,25.3911163 L54.4015118,12.4067157 C54.4055685,10.7815802 55.7225714,9.46546294 57.3477092,9.46249949 Z" id="矩形备份-5" fill="#FFE1E0" transform="translate(57.324168, 18.893557) rotate(-300.000000) translate(-57.324168, -18.893557) "></path>
                        <path d="M57.6647321,15.674221 C59.2816804,15.6712741 60.594865,16.9796807 60.5978119,18.596629 C60.5978196,18.600845 60.5978182,18.605061 60.5978077,18.609277 L60.5685273,30.3330876 C60.5644664,31.9590847 59.2467638,33.2758982 57.6207643,33.2788616 C56.003816,33.2818086 54.6906315,31.973402 54.6876845,30.3564537 C54.6876768,30.3522377 54.6876782,30.3480217 54.6876888,30.3438057 L54.7169691,18.619995 C54.7210301,16.9939979 56.0387327,15.6771845 57.6647321,15.674221 Z" id="矩形备份-6" fill="#FFE1E0" transform="translate(57.642748, 24.476541) rotate(-300.000000) translate(-57.642748, -24.476541) "></path>
                        <line x1="48.5645472" y1="15.4671277" x2="59.5782176" y2="9.3454956" id="路径-2" stroke="#FFE1E0" stroke-width="0.846400907" stroke-linecap="round" stroke-linejoin="round"></line>
                        <line x1="40.1258443" y1="14.3737934" x2="50.2826552" y2="9.29538798" id="路径-2备份-3" stroke="#FFE1E0" stroke-width="0.846400907" stroke-linecap="round" stroke-linejoin="round"></line>
                        <line x1="49.8447285" y1="20.0384922" x2="60.8583989" y2="13.9168601" id="路径-2备份" stroke="#FFE1E0" stroke-width="0.846400907" stroke-linecap="round" stroke-linejoin="round"></line>
                        <line x1="49.8235685" y1="26.7426271" x2="60.8372389" y2="20.620995" id="路径-2备份-2" stroke="#FFE1E0" stroke-width="0.846400907" stroke-linecap="round" stroke-linejoin="round"></line>
                    </g>
                </g>
                <g id="编组-9" transform="translate(0.000000, 71.000000)">
                    <path d="M23.3443967,194.044776 C21.7309722,166.18408 21.7309722,152.253731 23.3443967,152.253731 C24.3903688,152.253731 26.3953141,158.108434 29.3592326,169.817838 L43.6268657,169.818083 L43.6268657,194.044776 Z" id="形状结合备份" fill="#FFE1E0" transform="translate(32.880597, 173.149254) scale(-1, 1) rotate(-90.000000) translate(-32.880597, -173.149254) "></path>
                    <path d="M85.1594053,133 C86.1775284,133 88.1439422,138.869828 91.0586468,150.609483 L104.298507,150.61194 L104.298507,173.584072 L96.352,173.584 L96.3556132,173.597015 L85.1594053,173.597015 C83.6135316,146.532338 83.6135316,133 85.1594053,133 Z" id="形状结合备份-2" fill="#FFE1E0" transform="translate(94.149254, 153.298507) scale(-1, 1) rotate(-90.000000) translate(-94.149254, -153.298507) "></path>
                    <g id="矩形" transform="translate(10.492537, 58.000000)">
                        <mask id="mask-9" fill="white">
                            <use xlink:href="#path-8"></use>
                        </mask>
                        <use id="蒙版" fill="#FFC066" xlink:href="#path-8"></use>
                        <path d="M0.388968557,23.1503906 L0.388968557,36.3007812 L0.388968557,115.149254 L35.7568936,115.149254 C41.4187406,77.5856241 44.9959005,57.0000494 46.4883733,53.3925296 C48.7270824,47.98125 53.2024577,46.2730239 55.1808336,51.3874763 C56.4997509,54.7971113 56.8518173,69.4341217 56.2370328,95.2985075 L93.0114231,95.2985075 C103.83969,70.5467348 107.59804,50.690407 104.286473,35.7295241 C100.974906,20.7686412 91.5858826,8.8587998 76.119403,0" id="路径" stroke="#323232" mask="url(#mask-9)"></path>
                        <circle id="椭圆形" stroke="#323232" stroke-width="0.746268657" mask="url(#mask-9)" cx="33.1343284" cy="87.0746269" r="8.65671642"></circle>
                        <ellipse id="椭圆形" stroke="#323232" stroke-width="0.746268657" mask="url(#mask-9)" cx="14.3283582" cy="109.164179" rx="4.7761194" ry="4.47761194"></ellipse>
                        <circle id="椭圆形" stroke="#323232" stroke-width="0.746268657" mask="url(#mask-9)" cx="91.3432836" cy="71.2537313" r="4.17910448"></circle>
                        <circle id="椭圆形" stroke="#323232" stroke-width="0.746268657" mask="url(#mask-9)" cx="53.1343284" cy="13.9402985" r="4.17910448"></circle>
                        <polygon stroke="#323232" stroke-width="0.746268657" stroke-linejoin="round" mask="url(#mask-9)" points="8.35820896 51.5522388 8.35820896 67.0746269 -7.76119403 67.0746269"></polygon>
                        <polygon stroke="#323232" stroke-width="0.746268657" stroke-linejoin="round" mask="url(#mask-9)" points="107.462687 13.9402985 107.462687 29.4626866 91.3432836 29.4626866"></polygon>
                        <polygon stroke="#FFFFFF" stroke-width="0.746268657" stroke-linejoin="round" mask="url(#mask-9)" transform="translate(17.997879, 29.511329) rotate(-225.000000) translate(-17.997879, -29.511329) " points="20.3859383 27.1232689 20.3859383 31.8993883 15.6098189 31.8993883"></polygon>
                        <polygon id="矩形备份-38" stroke="#323232" stroke-width="0.746268657" stroke-linejoin="round" mask="url(#mask-9)" transform="translate(67.462687, 76.976589) rotate(-285.000000) translate(-67.462687, -76.976589) " points="70.4477612 73.9915143 70.4477612 79.9616635 64.4776119 79.9616635"></polygon>
                    </g>
                    <g id="编组-4" transform="translate(10.492537, 0.000000)">
                        <g id="编组-8">
                            <circle id="椭圆形" fill="#323232" cx="14.8059701" cy="11.9402985" r="11.9402985"></circle>
                            <g id="椭圆形" transform="translate(26.746269, 5.731343)">
                                <mask id="mask-11" fill="white">
                                    <use xlink:href="#path-10"></use>
                                </mask>
                                <use id="蒙版" fill="#FFE1E0" xlink:href="#path-10"></use>
                                <circle fill="#323232" mask="url(#mask-11)" cx="0.47761194" cy="10.9850746" r="5.25373134"></circle>
                                <circle id="椭圆形备份-2" fill="#323232" mask="url(#mask-11)" cx="2.3880597" cy="2.3880597" r="5.25373134"></circle>
                            </g>
                            <path d="M76.4179104,58.2686567 C76.4179104,37.1664334 59.3111785,20.0597015 38.2089552,20.0597015 C17.1067319,20.0597015 0,37.1664334 0,58.2686567 L76.4179104,58.2686567 Z" id="路径" fill="#FFFFFF"></path>
                            <polygon id="路径-4" fill="#FFFFFF" transform="translate(38.059701, 69.184302) scale(-1, 1) translate(-38.059701, -69.184302) " points="0 58.2089552 75.8217991 80.1596491 76.119403 58.2089552"></polygon>
                            <path d="M60.1791045,27.5651225 C53.9433567,22.8453052 46.2586936,20.0597015 37.9464135,20.0597015 C24.9419854,20.0597015 13.4737189,26.8777723 6.68656716,37.2537313" id="路径" stroke="#323232" stroke-linecap="round" stroke-linejoin="round"></path>
                        </g>
                    </g>
                    <g id="编组-3" transform="translate(0.791045, 17.119403)">
                        <g id="编组-2" transform="translate(0.000000, 0.031461)">
                            <path d="M41.5133993,3.65715423 C48.4669008,3.67197126 54.1001503,9.30519112 54.1150039,16.2586926 L54.1711416,42.538798 C54.1859135,49.4540663 48.5919559,55.0719739 41.6766876,55.0867458 C41.6588783,55.0867839 41.6410689,55.0867839 41.6232596,55.086746 C34.6697581,55.0719289 29.0365086,49.4387091 29.021655,42.4852076 L28.9655173,16.2051022 C28.9507454,9.28983387 34.544703,3.67192628 41.4599713,3.65715437 C41.4777806,3.65711633 41.49559,3.65711628 41.5133993,3.65715423 Z" id="矩形" fill="#FFE1E0" transform="translate(41.568329, 29.371950) rotate(32.000000) translate(-41.568329, -29.371950) "></path>
                            <g id="编组-5" transform="translate(33.708955, 52.849136) rotate(-240.000000) translate(-33.708955, -52.849136) translate(6.208955, 29.849136)">
                                <path d="M22.4130078,7.67591119 C29.3093444,7.66563542 34.90826,13.2478907 34.9185358,20.1442274 C34.918564,20.1631445 34.9185492,20.1820617 34.9184914,20.2009788 L34.8469504,43.6198392 L34.8469504,43.6198392 L9.75934466,43.6572205 L9.83088567,20.2383601 C9.85207692,13.301431 15.4760539,7.68624748 22.4130078,7.67591119 Z" id="矩形备份-2" fill="#FFE1E0" transform="translate(22.358078, 25.657221) rotate(-120.000000) translate(-22.358078, -25.657221) "></path>
                                <path d="M31.5059373,0.14155264 C34.2659364,0.135656924 36.5081371,2.36829881 36.5140328,5.12829786 C36.5140471,5.13498467 36.5140479,5.1416715 36.5140354,5.14835831 L36.496116,14.6899479 L36.496116,14.6899479 L31.4785948,14.700666 L31.5059373,0.14155264 Z" id="矩形" fill="#FFE1E0" transform="translate(34.001027, 7.415750) rotate(-300.000000) translate(-34.001027, -7.415750) "></path>
                                <path d="M42.0115748,-3.99464096 C43.3912255,-3.99758808 44.5120424,-2.88154935 44.5149895,-1.50189871 C44.5149971,-1.49834561 44.5149971,-1.4947925 44.5149895,-1.4912394 L44.4720909,18.640726 C44.4691347,20.0280044 43.3452629,21.1518822 41.9579844,21.1548456 C40.5783338,21.1577927 39.4575169,20.041754 39.4545697,18.6621033 C39.4545622,18.6585502 39.4545621,18.6549971 39.4545697,18.651444 L39.4974684,-1.48052132 C39.5004245,-2.8677998 40.6242964,-3.99167756 42.0115748,-3.99464096 Z" id="矩形备份-3" fill="#FFE1E0" transform="translate(41.984780, 8.580102) rotate(-300.000000) translate(-41.984780, -8.580102) "></path>
                                <path d="M41.9244614,3.24098732 C43.5388442,3.23804036 44.8499491,4.54436723 44.852896,6.15875004 C44.8529037,6.16295831 44.8529023,6.1671666 44.8528918,6.17137486 L44.8142279,21.6769453 C44.8101799,23.3003603 43.4945741,24.6150874 41.8711567,24.6180509 C40.2567739,24.6209979 38.9456691,23.314671 38.9427221,21.7002882 C38.9427144,21.6960799 38.9427158,21.6918716 38.9427263,21.6876634 L38.9813902,6.18209294 C38.9854383,4.55867789 40.301044,3.24395077 41.9244614,3.24098732 Z" id="矩形备份-4" fill="#FFE1E0" transform="translate(41.897809, 13.929519) rotate(-300.000000) translate(-41.897809, -13.929519) "></path>
                                <path d="M43.3477092,9.46249949 C44.9638015,9.45955253 46.2762921,10.7672652 46.279239,12.3833574 C46.2792467,12.3875708 46.2792453,12.3917842 46.2792348,12.3959976 L46.2468232,25.3803982 C46.2427666,27.0055337 44.9257637,28.321651 43.3006258,28.3246144 C41.6845336,28.3275614 40.372043,27.0198487 40.3690961,25.4037565 C40.3690884,25.3995431 40.3690898,25.3953297 40.3691003,25.3911163 L40.4015118,12.4067157 C40.4055685,10.7815802 41.7225714,9.46546294 43.3477092,9.46249949 Z" id="矩形备份-5" fill="#FFE1E0" transform="translate(43.324168, 18.893557) rotate(-300.000000) translate(-43.324168, -18.893557) "></path>
                                <path d="M43.6647321,15.674221 C45.2816804,15.6712741 46.594865,16.9796807 46.5978119,18.596629 C46.5978196,18.600845 46.5978182,18.605061 46.5978077,18.609277 L46.5685273,30.3330876 C46.5644664,31.9590847 45.2467638,33.2758982 43.6207643,33.2788616 C42.003816,33.2818086 40.6906315,31.973402 40.6876845,30.3564537 C40.6876768,30.3522377 40.6876782,30.3480217 40.6876888,30.3438057 L40.7169691,18.619995 C40.7210301,16.9939979 42.0387327,15.6771845 43.6647321,15.674221 Z" id="矩形备份-6" fill="#FFE1E0" transform="translate(43.642748, 24.476541) rotate(-300.000000) translate(-43.642748, -24.476541) "></path>
                                <line x1="34.5645472" y1="15.4671277" x2="45.5782176" y2="9.3454956" id="路径-2" stroke="#FFE1E0" stroke-width="0.846400907" stroke-linecap="round" stroke-linejoin="round"></line>
                                <line x1="26.1258443" y1="14.3737934" x2="36.2826552" y2="9.29538798" id="路径-2备份-3" stroke="#FFE1E0" stroke-width="0.846400907" stroke-linecap="round" stroke-linejoin="round"></line>
                                <line x1="35.8447285" y1="20.0384922" x2="46.8583989" y2="13.9168601" id="路径-2备份" stroke="#FFE1E0" stroke-width="0.846400907" stroke-linecap="round" stroke-linejoin="round"></line>
                                <line x1="35.8235685" y1="26.7426271" x2="46.8372389" y2="20.620995" id="路径-2备份-2" stroke="#FFE1E0" stroke-width="0.846400907" stroke-linecap="round" stroke-linejoin="round"></line>
                            </g>
                        </g>
                    </g>
                </g>
                <rect id="矩形" fill="#626262" transform="translate(88.500000, 70.000000) rotate(-360.000000) translate(-88.500000, -70.000000) " x="87" y="56" width="3" height="28" rx="1"></rect>
                <g id="编组" transform="translate(119.000000, 0.000000)">
                    <path d="M1.88857607,62.9883619 C1.57761294,62.9892926 1.2839126,62.8455127 1.09391795,62.5993401 C0.75647047,62.1621155 0.837355801,61.5341197 1.27459812,61.1966952 C2.08347124,60.5724115 2.82958502,59.8374942 3.51293945,58.9919434 C5.03800456,57.1048991 5.86509274,52.4899089 5.99420399,45.1469727 L5.99420399,45.1469727 L5.99414063,4 C5.99414063,1.790861 7.78500163,4.05812251e-16 9.99414063,0 L102.994141,0 C105.20328,-4.05812251e-16 106.994141,1.790861 106.994141,4 L106.994141,59 C106.995088,61.209139 105.204227,63 102.995088,63 C102.994772,63 102.994456,63 102.994141,62.9990524 L5.99414063,62.9760742 Z" id="形状结合" stroke="#323232" fill="#FFFFFF" stroke-linejoin="round"></path>
                    <rect id="矩形" fill="#E8E8E8" x="20.9941406" y="11" width="40" height="6" rx="3"></rect>
                    <rect id="矩形备份-10" fill="#E8E8E8" x="20.9941406" y="23" width="31" height="6" rx="3"></rect>
                    <rect id="矩形备份-11" fill="#E8E8E8" x="20.9941406" y="35" width="52" height="6" rx="3"></rect>
                    <circle id="椭圆形" fill="#E8E8E8" cx="23.9941406" cy="50" r="3"></circle>
                    <circle id="椭圆形备份" fill="#E8E8E8" cx="35.9941406" cy="50" r="3"></circle>
                    <circle id="椭圆形备份-3" fill="#E8E8E8" cx="47.9941406" cy="50" r="3"></circle>
                </g>
            </g>
        </g>
        <g id="编组-15" transform="translate(617.000000, 318.000000)">
            <rect id="矩形" stroke="#323232" fill="#FDFDFD" x="219.5" y="280.5" width="9" height="85"></rect>
            <rect id="矩形" stroke="#323232" fill="#FDFDFD" x="145.5" y="280.5" width="9" height="85"></rect>
            <rect id="矩形" stroke="#323232" fill="#FDFDFD" x="123.5" y="272.5" width="126" height="11"></rect>
            <g id="编组-2" transform="translate(103.000000, 154.000000)">
                <g id="编组-13" transform="translate(26.500000, 195.000000) rotate(-26.000000) translate(-26.500000, -195.000000) translate(11.000000, 175.000000)">
                    <path d="M7.98528137,3 C8.85055769,3 10.5218165,7.91664982 12.9990579,17.7499495 L24.25,17.75 L24.25,36.9891604 L17.498,36.989 L17.5,37 L10.8200059,37 C9.22759809,37 7.91264107,35.7558502 7.8245957,34.1658783 C6.67395526,13.3886261 6.72751715,3 7.98528137,3 Z" id="形状结合备份-3" fill="#FFE1E0" transform="translate(15.625000, 20.000000) rotate(-26.000000) translate(-15.625000, -20.000000) "></path>
                    <path d="M7.98528137,3 C8.85055769,3 10.5218165,7.91664982 12.9990579,17.7499495 L24.25,17.75 L24.25,36.9891604 L17.498,36.989 L17.5,37 L10.8200059,37 C9.22759809,37 7.91264107,35.7558502 7.8245957,34.1658783 C6.67395526,13.3886261 6.72751715,3 7.98528137,3 Z" id="形状结合备份-3" stroke="#323232" transform="translate(15.625000, 20.000000) rotate(-26.000000) translate(-15.625000, -20.000000) "></path>
                </g>
                <g id="编组-14" transform="translate(0.579408, 172.060450)">
                    <path d="M7.98528137,3 C8.85055769,3 10.5218165,7.91664982 12.9990579,17.7499495 L24.25,17.75 L24.25,36.9891604 L17.498,36.989 L17.5,37 L10.8200059,37 C9.22759809,37 7.91264107,35.7558502 7.8245957,34.1658783 C6.67395526,13.3886261 6.72751715,3 7.98528137,3 Z" id="形状结合备份-3" fill="#FFE1E0" transform="translate(15.625000, 20.000000) rotate(-26.000000) translate(-15.625000, -20.000000) "></path>
                    <path d="M7.98528137,3 C8.85055769,3 10.5218165,7.91664982 12.9990579,17.7499495 L24.25,17.75 L24.25,36.9891604 L17.498,36.989 L17.5,37 L10.8200059,37 C9.22759809,37 7.91264107,35.7558502 7.8245957,34.1658783 C6.67395526,13.3886261 6.72751715,3 7.98528137,3 Z" id="形状结合备份-3" stroke="#323232" transform="translate(15.625000, 20.000000) rotate(-26.000000) translate(-15.625000, -20.000000) "></path>
                </g>
                <polygon id="路径-33" fill="#323232" points="27 193.112305 44.6022907 203.4375 90.9058662 118"></polygon>
                <path d="M55.5313327,92 L16.5029295,186.257212 L25.5876289,208.809709 L100.31717,160.160421 C120.608287,146.950807 132.901411,124.427097 133.034313,100.215412 L133.079408,92 L133.079408,92 L55.5313327,92 Z" id="蒙版" fill="#323232"></path>
                <circle id="椭圆形" stroke="#FFFFFF" stroke-width="0.746268657" cx="41.8955224" cy="182.313433" r="8.65671642"></circle>
                <circle id="椭圆形" stroke="#FFFFFF" stroke-width="0.746268657" cx="100.104478" cy="166.492537" r="4.17910448"></circle>
                <circle id="椭圆形" stroke="#FFFFFF" stroke-width="0.746268657" cx="61.8955224" cy="109.179104" r="4.17910448"></circle>
                <polygon id="矩形" stroke="#FFFFFF" stroke-width="0.746268657" stroke-linejoin="round" points="17.119403 146.791045 17.119403 162.313433 1 162.313433"></polygon>
                <polygon id="矩形" stroke="#FFFFFF" stroke-width="0.746268657" stroke-linejoin="round" points="116.223881 109.179104 116.223881 124.701493 100.104478 124.701493"></polygon>
                <polygon id="矩形备份-38" stroke="#FFFFFF" stroke-width="0.746268657" stroke-linejoin="round" transform="translate(76.223881, 172.215395) rotate(-285.000000) translate(-76.223881, -172.215395) " points="79.2089552 169.23032 79.2089552 175.20047 73.238806 175.20047"></polygon>
                <line x1="81.493495" y1="113.126953" x2="16.5" y2="187.5" id="路径-32" stroke="#FFFFFF" stroke-linecap="round" stroke-linejoin="round"></line>
                <g id="人" transform="translate(42.424537, 0.000000)">
                    <g>
                        <path d="M71.8149299,29.8237404 C80.0407067,29.8237404 86.7090164,23.1554307 86.7090164,14.9296539 C86.7090164,6.70387705 80.0407067,0.0355673888 71.8149299,0.0355673888 C63.5891531,0.0355673888 56.9208434,6.70387705 56.9208434,14.9296539 C56.9208434,23.1554307 63.5891531,29.8237404 71.8149299,29.8237404 Z" id="椭圆形" fill="#323232"></path>
                        <g id="椭圆形" transform="translate(44.086496, 19.382171)">
                            <mask id="mask-13" fill="white">
                                <use xlink:href="#path-12"></use>
                            </mask>
                            <use id="蒙版" fill="#FFE1E0" xlink:href="#path-12"></use>
                            <circle fill="#323232" mask="url(#mask-13)" cx="10.7237423" cy="-8.8817842e-16" r="7.14916152"></circle>
                            <circle id="椭圆形备份-2" fill="#323232" mask="url(#mask-13)" cx="20.2559576" cy="9.53221536" r="7.14916152"></circle>
                        </g>
                        <path d="M100.088261,84.9161518 C100.088261,58.5936659 78.7496703,37.255075 52.4271845,37.255075 C26.1046986,37.255075 4.76610768,58.5936659 4.76610768,84.9161518 L100.088261,84.9161518 Z" id="路径" fill="url(#linearGradient-14)"></path>
                        <g id="编组" transform="translate(33.575463, 45.000000)">
                            <rect id="矩形" fill="#FFC066" x="12.768" y="0" width="2.688" height="18.144" rx="0.672"></rect>
                            <path d="M10.5491778,-2.89082217 L11.8931778,-2.89082217 C12.2643132,-2.89082217 12.5651778,-2.58995753 12.5651778,-2.21882217 L12.5651778,4.90682217 C12.5651778,5.27795753 12.2643132,5.57882217 11.8931778,5.57882217 L10.5491778,5.57882217 C10.1780425,5.57882217 9.87717783,5.27795753 9.87717783,4.90682217 L9.87717783,-2.21882217 C9.87717783,-2.58995753 10.1780425,-2.89082217 10.5491778,-2.89082217 Z" id="矩形备份" fill="#FFC066" transform="translate(11.221178, 1.344000) rotate(-270.000000) translate(-11.221178, -1.344000) "></path>
                            <path d="M1.344,9.28167188 L26.88,9.28167188 L24.2946989,40.305285 C24.2366502,41.0018696 23.6543405,41.5376719 22.9553414,41.5376719 L5.26865859,41.5376719 C4.56965947,41.5376719 3.98734981,41.0018696 3.92930109,40.305285 L1.344,9.28167188 L1.344,9.28167188 Z" id="矩形" fill="#FF736E"></path>
                            <path d="M24.2946989,40.305285 C24.2366502,41.0018696 23.6543405,41.5376719 22.9553414,41.5376719 L5.26865859,41.5376719 C4.56965947,41.5376719 3.98734981,41.0018696 3.92930109,40.305285 L1.344,9.28167187 L1.344,9.28167187 L26.88,9.28167187" id="路径" stroke="#323232" stroke-width="0.7"></path>
                            <rect id="矩形" fill="#F4F4F4" transform="translate(14.112000, 10.080000) scale(1, -1) translate(-14.112000, -10.080000) " x="0" y="8.736" width="28.224" height="2.688" rx="0.672"></rect>
                            <path d="M16.897549,11.424 C13.2918715,11.424 7.88335512,11.424 0.672,11.424 C0.300864648,11.424 0,11.1231354 0,10.752 L0,9.408 C0,9.03686465 0.300864648,8.736 0.672,8.736 C4.08211814,8.736 6.63970674,8.736 8.34476581,8.736" id="路径" stroke="#323232" stroke-width="0.7" stroke-linecap="round" stroke-linejoin="round" transform="translate(8.448775, 10.080000) scale(1, -1) translate(-8.448775, -10.080000) "></path>
                        </g>
                        <path d="M79.8323036,46.6171851 C72.0539582,40.7297807 62.4682651,37.255075 52.0996952,37.255075 C35.878235,37.255075 21.5729517,45.7597984 13.1067961,58.7025596" id="路径" stroke="#323232" stroke-linecap="round" stroke-linejoin="round"></path>
                        <g id="左手" transform="translate(0.000000, 55.127979)">
                            <path d="M11.9152692,0 C18.4958907,-2.98519739e-15 23.8305384,5.33464773 23.8305384,11.9152692 L23.8305384,25.0220653 C23.8305384,27.6543139 21.6966793,29.788173 19.0644307,29.788173 L4.76610768,29.788173 C2.13385909,29.788173 3.22357481e-16,27.6543139 0,25.0220653 L0,11.9152692 C9.70463138e-16,5.33464773 5.33464773,-5.67516287e-16 11.9152692,0 Z" id="矩形" fill="#FFE1E0" transform="translate(11.915269, 14.894086) rotate(-360.000000) translate(-11.915269, -14.894086) "></path>
                            <path d="M11.9152692,2.11657699e-15 C18.4958907,2.11657699e-15 23.8305384,5.33464773 23.8305384,11.9152692" id="路径" stroke="#323232" stroke-linecap="round" stroke-linejoin="round" transform="translate(17.872904, 5.957635) rotate(-360.000000) translate(-17.872904, -5.957635) "></path>
                            <path d="M11.5498986,29.788173 L4.76610768,29.788173 C2.13385909,29.788173 -1.0582885e-15,27.6543139 -1.0582885e-15,25.0220653 L-1.0582885e-15,11.9152692" id="路径" stroke="#323232" stroke-linecap="round" stroke-linejoin="round" transform="translate(5.774949, 20.851721) rotate(-360.000000) translate(-5.774949, -20.851721) "></path>
                            <path d="M26.2135922,-4.76610768 C32.7942137,-4.76610768 38.1288614,0.568540051 38.1288614,7.14916152 L38.1288614,28.5966461 C38.1288614,35.1772675 32.7942137,40.5119153 26.2135922,40.5119153 L14.298323,40.5119153 L14.298323,40.5119153 L14.298323,7.14916152 C14.298323,0.568540051 19.6329708,-4.76610768 26.2135922,-4.76610768 Z" id="矩形备份-2" fill="#FFE1E0" transform="translate(26.213592, 17.872904) rotate(-270.000000) translate(-26.213592, -17.872904) "></path>
                            <line x1="25.7362251" y1="9.43476381" x2="25.7362251" y2="2.48050538" id="路径" stroke="#323232" stroke-linecap="round" stroke-linejoin="round" transform="translate(25.736225, 5.957635) rotate(-270.000000) translate(-25.736225, -5.957635) "></line>
                            <path d="M41.3749114,0.592266732 C44.0053127,0.592266732 46.1378493,2.72429733 46.1384735,5.35469862 L46.1410191,16.0821167 L46.1410191,16.0821167 L41.378587,16.0821167 L41.3749114,0.592266732 Z" id="矩形" fill="#FFE1E0" transform="translate(43.757965, 8.337192) rotate(-270.000000) translate(-43.757965, -8.337192) "></path>
                            <path d="M44.086496,0 C45.4026203,2.02321099e-16 46.4695499,1.06692955 46.4695499,2.38305384 L46.4695499,23.8305384 C46.4695499,25.1466627 45.4026203,26.2135922 44.086496,26.2135922 C42.7703717,26.2135922 41.7034422,25.1466627 41.7034422,23.8305384 L41.7034422,2.38305384 C41.7034422,1.06692955 42.7703717,1.12994653e-15 44.086496,0 Z" id="矩形备份-3" fill="#FFE1E0" transform="translate(44.086496, 13.106796) rotate(-270.000000) translate(-44.086496, -13.106796) "></path>
                            <rect id="矩形备份-4" fill="#FFE1E0" transform="translate(42.894969, 17.872904) rotate(-270.000000) translate(-42.894969, -17.872904) " x="40.5119153" y="7.74492498" width="4.76610768" height="20.2559576" rx="2.38305384"></rect>
                            <path d="M41.7034422,13.7025596 C43.0195665,13.7025596 44.086496,14.7694891 44.086496,16.0856134 L44.086496,29.1924095 C44.086496,30.5085338 43.0195665,31.5754634 41.7034422,31.5754634 C40.3873179,31.5754634 39.3203883,30.5085338 39.3203883,29.1924095 L39.3203883,16.0856134 C39.3203883,14.7694891 40.3873179,13.7025596 41.7034422,13.7025596 Z" id="矩形备份-5" fill="#FFE1E0" transform="translate(41.703442, 22.639011) rotate(-270.000000) translate(-41.703442, -22.639011) "></path>
                            <path d="M38.1288614,16.6813769 C39.4449857,16.6813769 40.5119153,17.7483064 40.5119153,19.0644307 L40.5119153,35.7458076 C40.5119153,37.0619319 39.4449857,38.1288614 38.1288614,38.1288614 C36.8127371,38.1288614 35.7458076,37.0619319 35.7458076,35.7458076 L35.7458076,19.0644307 C35.7458076,17.7483064 36.8127371,16.6813769 38.1288614,16.6813769 Z" id="矩形备份-6" fill="#FFE1E0" transform="translate(38.128861, 27.405119) rotate(-270.000000) translate(-38.128861, -27.405119) "></path>
                            <line x1="41.7034422" y1="10.8137032" x2="45.2780229" y2="10.7554622" id="路径-2备份-3" stroke="#FFE1E0" stroke-width="0.59576346" stroke-linecap="round" stroke-linejoin="round"></line>
                            <line x1="41.7034422" y1="15.48985" x2="45.2780229" y2="15.48985" id="路径-2" stroke="#FFE1E0" stroke-width="0.59576346" stroke-linecap="round" stroke-linejoin="round"></line>
                            <line x1="41.7034422" y1="20.2559576" x2="45.2780229" y2="20.2559576" id="路径-2备份" stroke="#FFE1E0" stroke-width="0.59576346" stroke-linecap="round" stroke-linejoin="round"></line>
                            <line x1="41.7034422" y1="25.0220653" x2="45.2780229" y2="25.0220653" id="路径-2备份-2" stroke="#FFE1E0" stroke-width="0.59576346" stroke-linecap="round" stroke-linejoin="round"></line>
                        </g>
                        <path d="M92.9390997,38.4466019 C99.5197212,38.4466019 104.854369,43.7812497 104.854369,50.3618711 L104.854369,83.7246249 C104.854369,85.6988113 103.253975,87.2992056 101.279788,87.2992056 L81.0238305,87.2992056 L81.0238305,87.2992056 L81.0238305,50.3618711 C81.0238305,43.7812497 86.3584783,38.4466019 92.9390997,38.4466019 Z" id="矩形" fill="#FFE1E0" transform="translate(92.939100, 62.872904) rotate(-210.000000) translate(-92.939100, -62.872904) "></path>
                        <path d="M90.2581642,84.8248734 C90.2581642,78.2442519 95.5928119,72.9096042 102.173433,72.9096042 C108.754055,72.9096042 114.088703,78.2442519 114.088703,84.8248734" id="路径" stroke="#323232" stroke-linecap="round" stroke-linejoin="round" transform="translate(102.173433, 78.867239) rotate(-210.000000) translate(-102.173433, -78.867239) "></path>
                        <path d="M81.0318664,27.7640469 L97.440771,27.9801479 L97.440771,27.9801479 C97.440771,36.3535196 90.652812,43.1414786 82.2794402,43.1414786 C82.2510026,43.1414786 82.222565,43.1413986 82.1941278,43.1412386 L65.952198,43.0498443 L65.952198,43.0498443 C65.7322995,34.8298578 72.2176522,27.9879792 80.4376386,27.7680807 C80.635668,27.762783 80.8337834,27.7614382 81.0318664,27.7640469 Z" id="矩形" fill="#FFE1E0" transform="translate(81.489295, 35.393513) rotate(-30.000000) translate(-81.489295, -35.393513) "></path>
                        <path d="M95.5934585,29.7792865 C95.2579568,30.4537747 92.8675066,34.0307023 89.5288254,35.3408783" id="形状" stroke="#323232" stroke-linecap="round" stroke-linejoin="round" transform="translate(92.561142, 32.560082) rotate(-30.000000) translate(-92.561142, -32.560082) "></path>
                        <path d="M89.0520865,15.9966522 C90.3682107,15.9966522 91.4351403,17.0635818 91.4351403,18.379706 L91.4351403,24.3373406 C91.4351403,25.6534649 90.3682107,26.7203945 89.0520865,26.7203945 C87.7359622,26.7203945 86.6690326,25.6534649 86.6690326,24.3373406 L86.6690326,18.379706 C86.6690326,17.0635818 87.7359622,15.9966522 89.0520865,15.9966522 Z" id="矩形备份-3" fill="#FFE1E0" transform="translate(89.052086, 21.358523) rotate(-210.000000) translate(-89.052086, -21.358523) "></path>
                        <path d="M88.1729921,18.1906443 C89.4891163,18.1906443 90.5560459,19.2575739 90.5560459,20.5736981 L90.5560459,26.5313327 C90.5560459,27.847457 89.4891163,28.9143866 88.1729921,28.9143866 C86.8568678,28.9143866 85.7899382,27.847457 85.7899382,26.5313327 L85.7899382,20.5736981 C85.7899382,19.2575739 86.8568678,18.1906443 88.1729921,18.1906443 Z" id="矩形备份-7" fill="#FFE1E0" transform="translate(88.172992, 23.552515) rotate(-210.000000) translate(-88.172992, -23.552515) "></path>
                        <path d="M86.9814651,20.5736981 C88.2975894,20.5736981 89.364519,21.6406277 89.364519,22.956752 L89.364519,28.9143866 C89.364519,30.2305109 88.2975894,31.2974404 86.9814651,31.2974404 C85.6653408,31.2974404 84.5984113,30.2305109 84.5984113,28.9143866 L84.5984113,22.956752 C84.5984113,21.6406277 85.6653408,20.5736981 86.9814651,20.5736981 Z" id="矩形备份-8" fill="#FFE1E0" transform="translate(86.981465, 25.935569) rotate(-210.000000) translate(-86.981465, -25.935569) "></path>
                        <path d="M85.7899382,22.956752 C87.1060625,22.956752 88.1729921,24.0236815 88.1729921,25.3398058 L88.1729921,31.2974404 C88.1729921,32.6135647 87.1060625,33.6804943 85.7899382,33.6804943 C84.4738139,33.6804943 83.4068844,32.6135647 83.4068844,31.2974404 L83.4068844,25.3398058 C83.4068844,24.0236815 84.4738139,22.956752 85.7899382,22.956752 Z" id="矩形备份-9" fill="#FFE1E0" transform="translate(85.789938, 28.318623) rotate(-210.000000) translate(-85.789938, -28.318623) "></path>
                        <line x1="89.4017666" y1="25.2220452" x2="89.3272713" y2="20.7496998" id="路径-2备份-3" stroke="#FFE1E0" stroke-width="0.59576346" stroke-linecap="round" stroke-linejoin="round" transform="translate(89.401767, 22.809871) scale(-1, 1) rotate(-149.066557) translate(-89.401767, -22.809871) "></line>
                        <line x1="88.2102397" y1="27.605099" x2="88.1357444" y2="23.1327536" id="路径-2备份-3" stroke="#FFE1E0" stroke-width="0.59576346" stroke-linecap="round" stroke-linejoin="round" transform="translate(88.210240, 25.192925) scale(-1, 1) rotate(-149.066557) translate(-88.210240, -25.192925) "></line>
                        <line x1="87.0187128" y1="31.1796798" x2="86.9442175" y2="26.7073344" id="路径-2备份-3" stroke="#FFE1E0" stroke-width="0.59576346" stroke-linecap="round" stroke-linejoin="round" transform="translate(87.018713, 28.767505) scale(-1, 1) rotate(-149.066557) translate(-87.018713, -28.767505) "></line>
                        <path d="M90.5560459,37.255075 C89.1488449,39.0414714 86.7657911,41.0273496 83.4068844,43.2127096" id="路径-3" stroke="#FFE1E0" stroke-width="0.59576346" stroke-linecap="round" stroke-linejoin="round"></path>
                    </g>
                </g>
                <g id="装饰" transform="translate(69.000000, 5.330097)">
                    <circle id="椭圆形" fill="#323232" opacity="0.100000001" cx="74.7043248" cy="30.733451" r="3.57458076"></circle>
                    <rect id="矩形" fill="#FFC066" transform="translate(5.055221, 5.725124) rotate(-315.000000) translate(-5.055221, -5.725124) " x="1.48063983" y="2.15054274" width="7.14916152" height="7.14916152"></rect>
                    <rect id="矩形" stroke="#323232" stroke-width="0.59576346" transform="translate(7.438274, 5.725124) rotate(-315.000000) translate(-7.438274, -5.725124) " x="3.86369367" y="2.15054274" width="7.14916152" height="7.14916152"></rect>
                </g>
            </g>
            <rect id="矩形" stroke="#323232" fill="#F4F4F4" x="289.5" y="233.5" width="29" height="7"></rect>
            <rect id="矩形" stroke="#323232" fill="#FDFDFD" x="55" y="247" width="8" height="118"></rect>
            <rect id="矩形备份" stroke="#323232" fill="#FDFDFD" x="370" y="247" width="8" height="118"></rect>
            <rect id="矩形" stroke="#323232" fill="#FFFFFF" x="19" y="240" width="392" height="8"></rect>
            <rect id="矩形" stroke="#323232" fill="#FDFDFD" x="215.5" y="128.5" width="177" height="106"></rect>
            <circle id="椭圆形" fill="#E9E9E9" cx="304" cy="163" r="9"></circle>
            <g id="编组备份-4" transform="translate(132.500000, 19.000000) scale(-1, 1) translate(-132.500000, -19.000000) translate(82.000000, 0.000000)">
                <path d="M1.33323155,37.7930169 C1.14663601,37.7935754 0.970398801,37.7073006 0.856389238,37.5595845 C0.653894992,37.2972237 0.70242646,36.9203842 0.964838201,36.7179559 C1.45013153,36.3433988 1.89777335,35.9024689 2.30776367,35.395166 C3.22280273,34.2629395 3.71905564,31.4939453 3.79652239,27.0881836 L3.79652239,27.0881836 L3.79648438,2.4 C3.79648438,1.0745166 4.87100098,-1.08878028e-15 6.19648438,0 L97.9964844,0 C99.3219678,7.10919449e-15 100.396484,1.0745166 100.396484,2.4 L100.396484,35.4 C100.396841,36.7254834 99.3223244,37.8 97.996841,37.8 L97.9964844,37.7996433 L3.79648438,37.7856445 Z" id="形状结合" stroke="#323232" stroke-width="0.6" fill="#DEE3EF" stroke-linejoin="round"></path>
                <rect id="矩形" fill="#FFFFFF" x="30.8" y="6.6" width="58.8" height="3.6" rx="1.8"></rect>
                <rect id="矩形备份-10" fill="#FFFFFF" x="44" y="13.8" width="45.6" height="3.6" rx="1.8"></rect>
                <rect id="矩形备份-11" fill="#FFFFFF" x="12.8" y="21" width="76.8" height="3.6" rx="1.8"></rect>
                <circle id="椭圆形" fill="#FFFFFF" cx="14.5964844" cy="30" r="1.8"></circle>
                <circle id="椭圆形备份" fill="#FFFFFF" cx="21.7964844" cy="30" r="1.8"></circle>
                <circle id="椭圆形备份-3" fill="#FFFFFF" cx="28.9964844" cy="30" r="1.8"></circle>
            </g>
            <g id="编组备份-3" transform="translate(45.500000, 73.500000) scale(-1, 1) translate(-45.500000, -73.500000) translate(0.000000, 56.000000)" fill="#FFFFFF" stroke="#323232" stroke-width="0.54">
                <path d="M1.19990839,34.0137152 C1.03197241,34.0142178 0.873358921,33.9365705 0.770750314,33.8036261 C0.588505493,33.5675013 0.632183814,33.2283458 0.868354381,33.0461603 C1.30511837,32.709059 1.70799601,32.312222 2.0769873,31.8556494 C2.90052246,30.8366455 3.34715008,28.3445508 3.41687015,24.3793652 L3.41687015,24.3793652 L3.41683594,2.16 C3.41683594,0.96706494 4.38390088,-3.33357506e-15 5.57683594,0 L88.1968359,0 C89.389771,-2.19138615e-16 90.3568359,0.96706494 90.3568359,2.16 L90.3568359,31.86 C90.357143,33.0010683 89.4723559,33.9354804 88.3514153,34.0145766 L88.196836,34.019679 L88.196836,34.019679 L3.41683594,34.0070801 Z" id="形状结合" stroke-linejoin="round"></path>
                <rect id="矩形" x="27.99" y="6.21" width="52.38" height="2.7" rx="1.35"></rect>
                <rect id="矩形备份-10" x="39.87" y="12.69" width="40.5" height="2.7" rx="1.35"></rect>
                <rect id="矩形备份-11" x="11.79" y="19.17" width="68.58" height="2.7" rx="1.35"></rect>
                <circle id="椭圆形" cx="13.1368359" cy="27" r="1.35"></circle>
                <circle id="椭圆形备份" cx="19.6168359" cy="27" r="1.35"></circle>
                <circle id="椭圆形备份-3" cx="26.0968359" cy="27" r="1.35"></circle>
            </g>
            <g id="编组备份" transform="translate(119.500000, 104.500000) scale(-1, 1) translate(-119.500000, -104.500000) translate(35.000000, 73.000000)">
                <path d="M3.88857607,62.9883619 C3.57761294,62.9892926 3.2839126,62.8455127 3.09391795,62.5993401 C2.75647047,62.1621155 2.8373558,61.5341197 3.27459812,61.1966952 C4.08347124,60.5724115 4.82958502,59.8374942 5.51293945,58.9919434 C7.03800456,57.1048991 7.86509274,52.4899089 7.99420399,45.1469727 L7.99420399,45.1469727 L7.99414063,4 C7.99414063,1.790861 9.78500163,4.05812251e-16 11.9941406,0 L164.994141,0 C167.20328,-4.05812251e-16 168.994141,1.790861 168.994141,4 L168.994141,59 C168.994735,61.209139 167.203874,63 164.994735,63 L164.994141,62.9994056 L7.99414063,62.9760742 Z" id="形状结合" stroke="#323232" fill="#0188FF" stroke-linejoin="round"></path>
                <rect id="矩形" fill="#FFFFFF" x="53" y="11" width="98" height="6" rx="3"></rect>
                <rect id="矩形备份-10" fill="#FFFFFF" x="75" y="23" width="76" height="6" rx="3"></rect>
                <rect id="矩形备份-11" fill="#FFFFFF" x="23" y="35" width="128" height="6" rx="3"></rect>
                <circle id="椭圆形" fill="#FFFFFF" cx="25.9941406" cy="50" r="3"></circle>
                <circle id="椭圆形备份" fill="#FFFFFF" cx="37.9941406" cy="50" r="3"></circle>
                <circle id="椭圆形备份-3" fill="#FFFFFF" cx="49.9941406" cy="50" r="3"></circle>
            </g>
            <g id="编组-11" transform="translate(54.000000, 208.000000)">
                <rect id="矩形" stroke="#202020" stroke-width="1.97938144" fill="#323232" x="0" y="0" width="78.5154639" height="32" rx="6.59793814"></rect>
                <text id="PM" font-family="PingFangSC-Semibold, PingFang SC" font-size="4.6185567" font-weight="500" fill="#FFFFFF">
                    <tspan x="67.9897732" y="23.8041237">PM</tspan>
                </text>
                <text id="02:25" font-family="DS-Digital" font-size="23.0927835" font-weight="normal" letter-spacing="2.88659794" fill="#FFFFFF">
                    <tspan x="5.41668229" y="23.9484536">02:25</tspan>
                </text>
            </g>
        </g>
        <g id="编组-11" transform="translate(221.000000, 247.000000)" stroke="#323232">
            <rect id="矩形" fill="#FFFFFF" x="0" y="0" width="350" height="20"></rect>
            <rect id="矩形备份-12" fill="#FFFFFF" x="0" y="385" width="350" height="52"></rect>
            <rect id="矩形" fill="#FFFFFF" x="0" y="20" width="15" height="365"></rect>
            <rect id="矩形备份-11" fill="#FFFFFF" x="335" y="20" width="15" height="365"></rect>
            <g id="编组-7" transform="translate(15.000000, 28.000000)">
                <rect id="矩形" fill="#F4F4F4" x="0" y="48" width="320" height="10"></rect>
                <rect id="矩形" x="0" y="8" width="23" height="40"></rect>
                <rect id="矩形备份-13" fill="#FF736E" x="23" y="4" width="11" height="44"></rect>
                <rect id="矩形备份-17" fill="#F4F4F4" x="79" y="4" width="11" height="44"></rect>
                <rect id="矩形备份-14" x="34" y="16" width="15" height="32"></rect>
                <rect id="矩形备份-18" fill="#FFC066" x="90" y="16" width="15" height="32"></rect>
                <rect id="矩形备份-15" fill="#8FD59F" x="49" y="0" width="15" height="48"></rect>
                <rect id="矩形备份-19" x="105" y="0" width="15" height="48"></rect>
                <rect id="矩形备份-16" fill="#F4F4F4" x="64" y="8" width="15" height="40"></rect>
                <rect id="矩形备份-20" fill="#FF736E" x="120" y="8" width="15" height="40"></rect>
            </g>
            <g id="编组-7备份" transform="translate(15.000000, 251.000000)">
                <rect id="矩形" fill="#F4F4F4" x="0" y="48" width="320" height="10"></rect>
                <rect id="矩形" x="0" y="8" width="23" height="40"></rect>
                <rect id="矩形备份-13" fill="#E3E7EA" x="23" y="4" width="11" height="44"></rect>
                <rect id="矩形备份-17" fill="#FF736E" x="79" y="4" width="11" height="44"></rect>
                <rect id="矩形备份-14" fill="#0088FF" x="34" y="16" width="15" height="32"></rect>
                <rect id="矩形备份-18" x="90" y="16" width="15" height="32"></rect>
                <rect id="矩形备份-15" fill="#E3E7EA" x="49" y="0" width="15" height="48"></rect>
                <rect id="矩形备份-19" x="105" y="0" width="15" height="48"></rect>
                <rect id="矩形备份-16" fill="#8FD59F" x="64" y="8" width="15" height="40"></rect>
                <rect id="矩形备份-20" fill="#F4F4F4" x="120" y="8" width="15" height="40"></rect>
            </g>
            <g id="编组-6" transform="translate(15.000000, 100.000000)">
                <rect id="矩形备份-21" fill="#F4F4F4" x="0" y="52" width="320" height="10"></rect>
                <rect id="矩形备份-22" fill="#E3E7EA" x="0" y="0" width="23" height="52"></rect>
                <rect id="矩形备份-34" x="180" y="20" width="23" height="32"></rect>
                <rect id="矩形备份-23" fill="#F4F4F4" x="23" y="8" width="11" height="44"></rect>
                <rect id="矩形备份-35" x="203" y="8" width="11" height="44"></rect>
                <rect id="矩形备份-24" x="79" y="8" width="11" height="44"></rect>
                <rect id="矩形备份-25" x="34" y="4" width="15" height="48"></rect>
                <rect id="矩形备份-26" fill="#8FD59F" x="90" y="20" width="15" height="32"></rect>
                <rect id="矩形备份-31" x="135" y="20" width="15" height="32"></rect>
                <rect id="矩形备份-27" x="49" y="30" width="15" height="22"></rect>
                <rect id="矩形备份-28" x="105" y="4" width="15" height="48"></rect>
                <rect id="矩形备份-32" x="150" y="4" width="15" height="48"></rect>
                <rect id="矩形备份-29" x="64" y="12" width="15" height="40"></rect>
                <rect id="矩形备份-30" fill="#0088FF" x="120" y="0" width="15" height="52"></rect>
                <rect id="矩形备份-33" fill="#FFC066" x="165" y="0" width="15" height="52"></rect>
            </g>
            <g id="编组-4" transform="translate(15.000000, 176.000000)">
                <rect id="矩形备份-36" fill="#F4F4F4" x="0" y="52" width="320" height="10"></rect>
                <rect id="矩形备份-37" x="0" y="16" width="12" height="36"></rect>
                <rect id="矩形备份-39" x="12" y="1" width="16" height="51"></rect>
                <rect id="矩形备份-42" fill="#F4F4F4" x="28" y="4" width="21" height="48"></rect>
                <rect id="矩形备份-45" fill="#F4F4F4" x="49" y="8" width="10" height="44"></rect>
                <rect id="矩形备份-14" x="59" y="20" width="15" height="32"></rect>
                <rect id="矩形备份-18" x="104" y="20" width="15" height="32"></rect>
                <rect id="矩形备份-15" fill="#FFC066" x="74" y="4" width="15" height="48"></rect>
                <rect id="矩形备份-16" fill="#E3E7EA" x="89" y="12" width="15" height="40"></rect>
                <rect id="矩形备份-20" fill="#8FD59F" x="119" y="12" width="15" height="40"></rect>
                <rect id="矩形备份-35" fill="#FF736E" x="209" y="8" width="11" height="44"></rect>
                <rect id="矩形备份-31" fill="#F4F4F4" x="164" y="20" width="15" height="32"></rect>
                <rect id="矩形备份-28" fill="#E3E7EA" x="134" y="4" width="15" height="48"></rect>
                <rect id="矩形备份-32" x="179" y="4" width="15" height="48"></rect>
                <rect id="矩形备份-30" fill="#8FD59F" x="149" y="0" width="15" height="52"></rect>
                <rect id="矩形备份-33" x="194" y="0" width="15" height="52"></rect>
            </g>
            <g id="编组-4备份" transform="translate(15.000000, 323.000000)">
                <rect id="矩形备份-36" fill="#F4F4F4" x="0" y="52" width="320" height="10"></rect>
                <rect id="矩形备份-37" fill="#0088FF" x="0" y="16" width="12" height="36"></rect>
                <rect id="矩形备份-39" fill="#F4F4F4" x="12" y="1" width="16" height="51"></rect>
                <rect id="矩形备份-42" fill="#FFFFFF" x="28" y="4" width="21" height="48"></rect>
                <rect id="矩形备份-45" x="49" y="8" width="10" height="44"></rect>
                <rect id="矩形备份-14" fill="#E3E7EA" x="59" y="20" width="15" height="32"></rect>
                <rect id="矩形备份-18" fill="#0088FF" x="104" y="20" width="15" height="32"></rect>
                <rect id="矩形备份-15" fill="#8FD59F" x="74" y="4" width="15" height="48"></rect>
                <rect id="矩形备份-16" x="89" y="12" width="15" height="40"></rect>
                <rect id="矩形备份-20" fill="#F4F4F4" x="119" y="12" width="15" height="40"></rect>
                <rect id="矩形备份-35" x="209" y="8" width="11" height="44"></rect>
                <rect id="矩形备份-31" fill="#8FD59F" x="164" y="20" width="15" height="32"></rect>
                <rect id="矩形备份-28" x="134" y="4" width="15" height="48"></rect>
                <rect id="矩形备份-32" fill="#0088FF" x="179" y="4" width="15" height="48"></rect>
                <rect id="矩形备份-30" fill="#F4F4F4" x="149" y="0" width="15" height="52"></rect>
                <rect id="矩形备份-33" fill="#FFC066" x="194" y="0" width="15" height="52"></rect>
            </g>
        </g>
        <path d="M685,484.286145 C724.677461,494.002351 748.961106,484.653869 757.850936,456.2407 C766.740766,427.827531 747.777433,392.831549 706.027687,391 M684.295329,372 C665.412845,363.970185 667.710682,343.043173 671.89213,334.648514 C692.65749,292.960061 739.821249,312.60162 758,278" id="形状" stroke="#323232" stroke-linecap="round" stroke-linejoin="round" stroke-dasharray="4"></path>
        <g id="纸飞机" transform="translate(760.000000, 265.423853) rotate(-8.000000) translate(-760.000000, -265.423853) translate(749.000000, 254.423853)" fill="#323232" fill-rule="nonzero">
            <path d="M21.9932221,0.467560627 C21.9921619,0.456428231 21.9900414,0.445560892 21.9876558,0.434693554 C21.9865955,0.428067128 21.984475,0.421440701 21.9820894,0.413754047 C21.9799689,0.400501195 21.9754628,0.388573628 21.9709567,0.376381004 C21.9457755,0.299249404 21.9028349,0.225563545 21.8410747,0.164070311 C21.8344481,0.157443885 21.8278215,0.150817459 21.8201346,0.145251261 C21.8103272,0.13544415 21.801315,0.12643221 21.7904473,0.118745556 C21.7520128,0.0879989389 21.7101325,0.0625534626 21.6661317,0.0450596976 C21.655264,0.0394934997 21.6441313,0.035252587 21.6332636,0.0318068454 C21.6157693,0.0251804193 21.5969497,0.0196142213 21.5783951,0.0153733086 C21.5651419,0.0121926241 21.5518886,0.00980711066 21.5389004,0.0076866543 C21.5245869,0.00450596976 21.5092131,0.00318068454 21.4948996,0.00212045636 C21.4795258,0 21.4652123,0 21.4498385,0 C21.4310189,0 21.4124643,0.00106022818 21.3936447,0.00318068454 C21.3737648,0.0053011409 21.3552103,0.0076866543 21.3363906,0.011927567 C21.3165107,0.0164335368 21.2979562,0.0206744495 21.2801968,0.0273008756 C21.2613772,0.0328670736 21.2428226,0.0405537279 21.2250632,0.0482403822 C21.2152558,0.0514210667 21.2041231,0.0569872647 21.1943157,0.0614932344 L0.325203836,9.39945293 L0.325203836,9.39945293 C0.141503858,9.48090867 0.017317375,9.6565951 0.00182431512,9.85694139 L0.00182429754,9.8569416 C-0.0145343327,10.0573775 0.0800487434,10.2507077 0.248335181,10.360815 L6.89670006,14.7244492 L7.78652387,20.773316 C7.81727143,20.9866869 7.9712743,21.1626848 8.17935047,21.2220576 C8.22891766,21.2363707 8.27954511,21.2429971 8.33017256,21.2429971 C8.4897418,21.2429971 8.64374467,21.1748774 8.75030087,21.0495054 L11.5332202,17.7694245 L17.8417715,21.9098806 C17.9329539,21.9692534 18.0376547,22 18.1431506,22 C18.2189593,22 18.295033,21.9846267 18.3652753,21.9528198 C18.5367724,21.8780738 18.656847,21.7206299 18.6865343,21.5358851 L21.9897765,0.656016402 C21.9908368,0.647269519 21.9929573,0.637197351 21.9942827,0.627390241 C21.9964032,0.616257845 21.9974634,0.604330278 21.9974634,0.592137654 C22.0022346,0.551053812 21.9999698,0.509174799 21.9932224,0.467560843 L21.9932221,0.467560627 Z M18.897791,2.29459884 L7.33326216,13.6970879 L1.69134978,9.99344576 L18.897791,2.29459884 Z M8.69728759,19.4103925 L8.12660225,15.5318127 L10.6070822,17.1608533 L8.69728759,19.4103925 L8.69728759,19.4103925 Z M17.7330946,20.5225718 L11.748983,16.5944264 C11.7336092,16.5846193 11.7192957,16.5745471 11.7039219,16.5658002 L8.27503875,14.3152009 L20.6458958,2.11515522 L17.7330946,20.5225718 L17.7330946,20.5225718 Z" id="形状"></path>
        </g>
        <g id="编组-16" transform="translate(823.000000, 278.000000)">
            <g id="编组-12">
                <polyline id="路径-9" stroke="#323232" stroke-linecap="round" stroke-linejoin="round" points="33.7746345 53 40 29.6510015 34.1896588 4 30 4"></polyline>
                <path d="M30.5578129,4 C30.5578129,4 32.6698601,-0.942617155 27.6622392,0.160573788 C22.6546183,1.26376473 30.5578129,4 30.5578129,4 Z" id="路径-4" fill="#8FD59F"></path>
                <path d="M34.5578129,6 C34.5578129,6 36.6698601,1.05738285 31.6622392,2.16057379 C26.6546183,3.26376473 34.5578129,6 34.5578129,6 Z" id="路径-4备份" fill="#8FD59F" transform="translate(32.500000, 4.000000) rotate(174.000000) translate(-32.500000, -4.000000) "></path>
                <path d="M27.9436166,2 C23.7035261,3.29226175 21.1316619,4.80377368 20.2280239,6.5345358 C18.872567,9.13067898 23.8308498,12.0445802 27.9436166,7.99148643 C30.6854611,5.28942389 30.6854611,3.29226175 27.9436166,2 Z" id="路径-3" fill="#E6625E" transform="translate(25.000000, 6.000000) rotate(18.000000) translate(-25.000000, -6.000000) "></path>
                <path d="M29.1210632,4 C23.1849365,5.61532718 19.5843266,7.5047171 18.3192335,9.66816975 C16.4215938,12.9133487 23.3631897,16.5557253 29.1210632,11.489358 C32.9596456,8.11177986 32.9596456,5.61532718 29.1210632,4 Z" id="路径-3" fill="#FF736E" transform="translate(25.000000, 9.000000) rotate(-17.000000) translate(-25.000000, -9.000000) "></path>
                <path d="M26.1774466,17 C24.4814104,17.6461309 23.4526647,18.4018868 23.0912096,19.2672679 C22.5490268,20.5653395 24.5323399,22.0222901 26.1774466,19.9957432 C27.2741845,18.6447119 27.2741845,17.6461309 26.1774466,17 Z" id="路径-3备份-2" fill="#FF736E" transform="translate(25.000000, 19.000000) rotate(-17.000000) translate(-25.000000, -19.000000) "></path>
                <path d="M18.0019975,35.4973529 C16.3059613,36.1434838 15.2772156,36.8992398 14.9157604,37.7646208 C14.3735777,39.0626924 16.3568908,40.519643 18.0019975,38.4930961 C19.0987353,37.1420649 19.0987353,36.1434838 18.0019975,35.4973529 Z" id="路径-3备份-2" fill="#FF736E" transform="translate(16.824551, 37.497353) rotate(-17.000000) translate(-16.824551, -37.497353) "></path>
                <path d="M4.0019975,57.4973529 C2.3059613,58.1434838 1.27721561,58.8992398 0.915760427,59.7646208 C0.373577656,61.0626924 2.35689077,62.519643 4.0019975,60.4930961 C5.09873532,59.1420649 5.09873532,58.1434838 4.0019975,57.4973529 Z" id="路径-3备份-3" fill="#FF736E" transform="translate(2.824551, 59.497353) rotate(42.000000) translate(-2.824551, -59.497353) "></path>
                <path d="M45.4075013,10 C40.8413487,11.029954 38.1136462,12.4664843 37.2243939,14.309591 C35.8905153,17.074251 40.769864,20.1772948 44.8171571,15.8611129 C47.5153525,12.9836583 47.7121339,11.029954 45.4075013,10 Z" id="路径-3备份" fill="#FF827E" transform="translate(42.000000, 14.000000) rotate(-65.000000) translate(-42.000000, -14.000000) "></path>
            </g>
            <rect id="矩形" fill="#FFFFFF" opacity="0.643391927" x="28.9925373" y="24" width="14" height="42"></rect>
        </g>
    </g>
</svg>